<svg width="98" height="77" viewBox="0 0 98 77" fill="none" xmlns="http://www.w3.org/2000/svg">
<path d="M17.73 22.8132C19.2471 26.9754 20.8052 31.1375 22.3223 35.3397C23.3063 38.021 25.7255 41.3027 29.0057 40.1021C31.3019 39.2617 33.639 38.3812 35.9352 37.5408C37.1652 37.1006 38.3953 36.6203 39.6254 36.1801C42.0036 35.2996 42.7826 32.5783 42.7416 30.2971C42.6596 27.5357 41.3065 24.7743 40.3634 22.1729C39.0514 18.6111 37.7393 15.0493 36.4272 11.4474C35.4021 8.686 34.5821 5.16419 31.7939 3.56337C29.2517 2.12263 27.2836 3.92356 25.3155 5.28426C23.1423 6.80504 20.9692 8.28579 18.755 9.80657C18.263 10.1668 17.73 10.4469 17.2789 10.8871C15.3928 12.608 15.4748 15.8497 16.0079 18.0908C16.4999 19.7317 17.1559 21.2925 17.73 22.8132Z" fill="#6ABEB9"/>
<path d="M54.8373 61.4731C53.5662 58.0313 52.2951 54.5495 51.0241 51.1078C49.958 48.1462 49.0559 45.0246 46.3498 43.0636C43.8076 41.2227 41.6345 42.1432 39.0103 42.9836C36.5091 43.784 34.0079 44.5844 31.5478 45.3448C26.0534 47.1057 29.0056 53.3889 30.3997 57.1909C31.8758 61.1929 33.2699 65.195 34.787 69.197C35.8941 72.1986 38.4772 75.4402 42.0445 75.2001C44.5456 75.04 47.0468 74.88 49.548 74.7199C50.9011 74.6398 52.2951 74.5598 53.6482 74.4397C56.5184 74.2396 57.5435 71.5582 57.2975 69.037C57.0105 66.5157 55.6984 63.8743 54.8373 61.4731Z" fill="#6ABEB9"/>
<path d="M27.6937 58.6317C26.5867 55.7102 25.7666 52.0683 23.3064 49.9873C21.0923 48.1063 18.8781 49.387 16.5 50.1473C14.3268 50.8277 11.0876 51.1078 10.7186 53.7492C10.3906 56.0704 11.4977 58.3515 12.2767 60.4726C13.2198 62.9939 14.1628 65.5552 15.0649 68.0765C15.7619 69.9975 16.377 72.0786 17.5251 73.7995C18.3451 74.9601 19.7392 76.5609 21.3383 76.4808C22.2814 76.4408 23.1834 76.3608 24.1265 76.3208C25.4796 76.2407 26.8327 76.1607 28.1858 76.0806C28.9648 76.0406 29.9899 76.1207 30.7279 75.8005C33.3931 74.6799 31.999 70.5578 31.261 68.5968C30.1129 65.2351 28.8828 61.9534 27.6937 58.6317Z" fill="#489890"/>
<path d="M16.869 44.5844C17.6481 44.3043 18.6731 44.0641 19.2472 43.4238C21.1743 41.2227 20.0262 37.8209 19.1241 35.4197C17.9351 32.178 16.705 28.8963 15.5159 25.6547C14.5318 22.9733 13.7118 19.0513 11.2516 17.2904C9.07849 15.7296 6.98735 17.9707 5.26524 19.1714C3.37912 20.492 0.508928 21.6927 0.0989009 24.1339C-0.311126 26.6152 0.631936 28.9364 1.49299 31.2175C2.43605 33.7388 3.33811 36.2601 4.28118 38.7814C4.93722 40.5423 5.47025 42.4633 6.37231 44.1041C7.06936 45.3848 8.70947 47.5859 10.4726 46.9056C11.3336 46.5854 12.2357 46.2653 13.0968 45.9451C14.3678 45.5049 15.6389 45.0646 16.869 44.5844Z" fill="#489890"/>
<path d="M74.1907 41.1427C72.9606 38.0611 70.4595 35.5799 66.9332 36.2202C64.3501 36.7004 61.8079 37.1807 59.2247 37.6209C58.1587 37.821 57.0516 38.0211 55.9855 38.2212C52.9923 38.7815 52.2953 42.1832 52.7053 44.6645C53.0743 47.1058 54.2634 49.587 55.1245 51.9082C56.3956 55.39 57.6256 58.8718 58.8967 62.3136C59.8808 65.115 60.7418 68.1966 63.407 69.9575C65.9492 71.6383 68.0403 70.3577 70.4185 69.2771C72.7966 68.1966 75.1748 67.076 77.5529 65.9955C82.8833 63.5542 80.2181 57.5911 78.701 53.429C77.1839 49.3469 75.8308 45.1848 74.1907 41.1427Z" fill="#E08526"/>
<path d="M44.2997 22.0529C45.4068 25.2145 46.3089 28.4562 49.0561 30.6973C51.4342 32.6583 53.6484 32.3782 56.3955 32.018C59.0607 31.6578 61.7259 31.3376 64.3911 30.9775C65.0061 30.8974 65.6621 30.8974 66.2362 30.6973C68.5323 30.017 68.6143 27.0554 68.2043 25.2145C67.8353 23.4936 67.0972 21.8128 66.5232 20.1719C65.1291 16.1298 63.776 12.0478 62.2999 8.00568C61.1929 4.9241 58.6097 1.56238 55.0835 1.20219C52.7053 0.962068 50.2861 0.721945 47.867 0.521843C44.8328 0.241699 39.4204 -1.3191 38.5594 2.80301C37.9853 5.52441 39.6254 8.68603 40.4865 11.2073C41.7986 14.8492 43.0287 18.451 44.2997 22.0529Z" fill="#E08526"/>
<path d="M69.2705 18.5311C70.3776 21.6126 71.2797 25.4146 73.7808 27.7358C75.954 29.7368 78.2091 29.0164 80.8333 28.6162C82.5964 28.3761 86.4097 28.6162 87.1067 26.5752C87.8448 24.334 86.6147 21.8127 85.8356 19.6917C84.8926 17.1303 83.9905 14.569 83.0474 12.0077C82.3504 10.0467 81.7354 7.92562 80.5873 6.16471C78.7832 3.48334 76.938 3.08313 74.0269 2.84301C71.8127 2.64291 69.5986 2.44281 67.3844 2.28272C63.9402 2.00258 65.0063 6.76502 65.6623 8.60597C66.8924 11.9277 68.0815 15.2094 69.2705 18.5311Z" fill="#E7A874"/>
<path d="M96.2092 48.3063C95.2661 45.745 94.364 43.1837 93.421 40.6223C92.7239 38.7014 92.1499 36.5803 90.9608 34.8594C90.1818 33.6988 88.7877 32.218 87.1886 32.5382C86.2045 32.6983 85.2204 32.8984 84.2364 33.0985C82.9653 33.3386 81.6532 33.5787 80.3821 33.8189C79.6031 33.9789 78.537 34.019 77.881 34.5392C75.7078 36.3402 76.9789 39.862 77.758 42.1031C78.947 45.3848 80.1361 48.7065 81.3252 51.9882C82.3093 54.7496 83.1293 58.3915 85.5075 60.2724C87.6806 62.0333 89.9357 60.3124 92.0679 59.352C94.282 58.3514 97.3162 57.7111 97.6443 54.9497C97.9723 52.5885 96.9882 50.4274 96.2092 48.3063Z" fill="#E7A874"/>
</svg>
