<?xml version="1.0" encoding="utf-8"?>
<!-- Generator: Adobe Illustrator 26.0.1, SVG Export Plug-In . SVG Version: 6.00 Build 0)  -->
<svg version="1.1" id="Layer_1" xmlns="http://www.w3.org/2000/svg" xmlns:xlink="http://www.w3.org/1999/xlink" x="0px" y="0px"
	 viewBox="0 0 1352 214" style="enable-background:new 0 0 1352 214;" xml:space="preserve">
<style type="text/css">
	.st0{fill:#2C4262;}
	.st1{fill:#6ABEB9;}
	.st2{fill:#489890;}
	.st3{fill:#E08526;}
	.st4{fill:#E7A874;}
</style>
<g>
	<g>
		<path class="st0" d="M308,59.8h17.9v139.5H308V59.8z"/>
		<path class="st0" d="M350.1,59.8H368v25c7.2-9.6,15.1-16.7,23.8-21.5c8.7-4.7,18.2-7.1,28.5-7.1c10.4,0,19.7,2.7,27.7,7.9
			c8.1,5.3,14,12.4,17.9,21.4c3.8,9,5.8,22.9,5.8,41.9v71.8h-17.9v-66.5c0-16.1-0.7-26.8-2-32.2c-2.1-9.2-6.1-16.2-12-20.8
			c-5.9-4.7-13.6-7-23.1-7c-10.9,0-20.6,3.6-29.2,10.8c-8.6,7.2-14.3,16.1-17,26.7c-1.7,6.9-2.6,19.6-2.6,37.9v51.1h-17.9V59.8z"/>
		<path class="st0" d="M563.1,56.2c21.5,0,39.3,7.8,53.4,23.3c12.8,14.2,19.3,31,19.3,50.4c0,19.5-6.8,36.5-20.4,51.1
			c-13.6,14.6-31,21.9-52.3,21.9c-21.4,0-38.9-7.3-52.4-21.9c-13.6-14.6-20.4-31.6-20.4-51.1c0-19.3,6.4-36.1,19.3-50.2
			C523.6,64.1,541.5,56.2,563.1,56.2z M563,73.8c-14.9,0-27.7,5.5-38.5,16.5c-10.7,11-16.1,24.4-16.1,40c0,10.1,2.4,19.5,7.3,28.2
			c4.9,8.7,11.5,15.4,19.8,20.2c8.3,4.7,17.5,7.1,27.4,7.1c9.9,0,19.1-2.4,27.4-7.1c8.3-4.7,14.9-11.5,19.8-20.2
			c4.9-8.7,7.3-18.1,7.3-28.2c0-15.6-5.4-29-16.1-40C590.6,79.3,577.8,73.8,563,73.8z"/>
		<path class="st0" d="M642.6,59.8h19.1l46.8,101.7l46.2-101.7H774l-63.8,139.5h-3.3L642.6,59.8z"/>
		<path class="st0" d="M927.1,59.8v139.5h-17.7v-24c-7.5,9.1-16,16-25.3,20.6c-9.4,4.6-19.6,6.9-30.7,6.9
			c-19.7,0-36.6-7.2-50.6-21.5c-14-14.3-21-31.7-21-52.2c0-20.1,7-37.2,21.1-51.5c14.1-14.3,31.1-21.4,50.9-21.4
			c11.5,0,21.8,2.4,31.1,7.3c9.3,4.9,17.4,12.2,24.4,21.9V59.8H927.1z M855.4,73.5c-10,0-19.2,2.5-27.6,7.4
			c-8.5,4.9-15.2,11.8-20.2,20.7c-5,8.9-7.5,18.3-7.5,28.2c0,9.8,2.5,19.2,7.6,28.2c5,9,11.8,15.9,20.3,20.9
			c8.5,5,17.6,7.5,27.3,7.5c9.8,0,19.1-2.5,27.9-7.4c8.8-5,15.6-11.6,20.3-20.1c4.7-8.5,7.1-18,7.1-28.6c0-16.1-5.3-29.6-15.9-40.5
			C884,79,870.9,73.5,855.4,73.5z"/>
		<path class="st0" d="M970,8h17.9v51.8h28.5v15.5h-28.5v123.9H970V75.3h-24.5V59.8H970V8z"/>
		<path class="st0" d="M1147.6,153l15.1,7.9c-5,9.7-10.7,17.6-17.2,23.6c-6.5,6-13.8,10.5-21.9,13.7c-8.1,3.1-17.3,4.7-27.6,4.7
			c-22.7,0-40.5-7.5-53.4-22.4c-12.8-14.9-19.2-31.8-19.2-50.6c0-17.7,5.4-33.5,16.3-47.3c13.8-17.6,32.2-26.4,55.3-26.4
			c23.8,0,42.8,9,57,27c10.1,12.7,15.2,28.6,15.4,47.7h-125.5c0.3,16.2,5.5,29.5,15.5,39.8c10,10.4,22.4,15.5,37.1,15.5
			c7.1,0,14-1.2,20.7-3.7c6.7-2.5,12.4-5.7,17.1-9.8C1137,168.7,1142.1,162.1,1147.6,153z M1147.6,115.5
			c-2.4-9.6-5.9-17.2-10.5-22.9c-4.6-5.7-10.6-10.3-18.2-13.8c-7.5-3.5-15.4-5.3-23.7-5.3c-13.7,0-25.5,4.4-35.3,13.2
			c-7.2,6.4-12.6,16-16.3,28.8H1147.6z"/>
		<path class="st0" d="M1323,88.8l-14.2,8.8c-12.3-16.3-29.1-24.5-50.3-24.5c-17,0-31.1,5.5-42.3,16.4
			c-11.2,10.9-16.8,24.2-16.8,39.8c0,10.2,2.6,19.7,7.7,28.7c5.2,9,12.3,15.9,21.3,20.9c9,4.9,19.1,7.4,30.3,7.4
			c20.5,0,37.2-8.2,50.2-24.5l14.2,9.4c-6.7,10-15.6,17.8-26.9,23.4c-11.2,5.5-24,8.3-38.4,8.3c-22.1,0-40.3-7-54.9-21
			c-14.5-14-21.8-31.1-21.8-51.1c0-13.5,3.4-26,10.2-37.6c6.8-11.6,16.1-20.6,28-27.1c11.9-6.5,25.2-9.7,39.9-9.7
			c9.2,0,18.1,1.4,26.7,4.2c8.6,2.8,15.9,6.5,21.9,11C1313.7,76,1318.8,81.8,1323,88.8z"/>
	</g>
	<g>
		<path class="st0" d="M312.5,20.6c3.6,4.8,6.8,9.4,7.1,10.1s-2.5,4.7-5.3,7.9s-5.7,6-6.3,6.2c-0.6,0.1-5.4-5.5-9.5-11
			c-4.1-5.5-7.6-10.6-7.9-11.4s3.1-4.3,6.5-6.9s6.6-4.8,7.1-4.8C304.7,10.7,308.9,15.8,312.5,20.6z"/>
	</g>
	<path class="st1" d="M54.4,68.5c3.7,10.4,7.5,20.8,11.2,31.3c2.4,6.7,8.3,14.9,16.3,11.9c5.6-2.1,11.3-4.3,16.9-6.4
		c3-1.1,6-2.3,9-3.4c5.8-2.2,7.7-9,7.6-14.7c-0.2-6.9-3.5-13.8-5.8-20.3c-3.2-8.9-6.4-17.8-9.6-26.8c-2.5-6.9-4.5-15.7-11.3-19.7
		c-6.2-3.6-11,0.9-15.8,4.3c-5.3,3.8-10.6,7.5-16,11.3c-1.2,0.9-2.5,1.6-3.6,2.7c-4.6,4.3-4.4,12.4-3.1,18
		C51.4,60.8,53,64.7,54.4,68.5z"/>
	<path class="st1" d="M144.9,165.1c-3.1-8.6-6.2-17.3-9.3-25.9c-2.6-7.4-4.8-15.2-11.4-20.1c-6.2-4.6-11.5-2.3-17.9-0.2
		c-6.1,2-12.2,4-18.2,5.9c-13.4,4.4-6.2,20.1-2.8,29.6c3.6,10,7,20,10.7,30c2.7,7.5,9,15.6,17.7,15c6.1-0.4,12.2-0.8,18.3-1.2
		c3.3-0.2,6.7-0.4,10-0.7c7-0.5,9.5-7.2,8.9-13.5C150.2,177.7,147,171.1,144.9,165.1z"/>
	<path class="st2" d="M78.7,158C76,150.7,74,141.6,68,136.4c-5.4-4.7-10.8-1.5-16.6,0.4c-5.3,1.7-13.2,2.4-14.1,9
		c-0.8,5.8,1.9,11.5,3.8,16.8c2.3,6.3,4.6,12.7,6.8,19c1.7,4.8,3.2,10,6,14.3c2,2.9,5.4,6.9,9.3,6.7c2.3-0.1,4.5-0.3,6.8-0.4
		c3.3-0.2,6.6-0.4,9.9-0.6c1.9-0.1,4.4,0.1,6.2-0.7c6.5-2.8,3.1-13.1,1.3-18C84.6,174.5,81.6,166.3,78.7,158z"/>
	<path class="st2" d="M52.3,122.9c1.9-0.7,4.4-1.3,5.8-2.9c4.7-5.5,1.9-14-0.3-20c-2.9-8.1-5.9-16.3-8.8-24.4
		c-2.4-6.7-4.4-16.5-10.4-20.9c-5.3-3.9-10.4,1.7-14.6,4.7c-4.6,3.3-11.6,6.3-12.6,12.4c-1,6.2,1.3,12,3.4,17.7
		c2.3,6.3,4.5,12.6,6.8,18.9c1.6,4.4,2.9,9.2,5.1,13.3c1.7,3.2,5.7,8.7,10,7c2.1-0.8,4.3-1.6,6.4-2.4
		C46.2,125.2,49.3,124.1,52.3,122.9z"/>
	<path class="st3" d="M192.1,114.3c-3-7.7-9.1-13.9-17.7-12.3c-6.3,1.2-12.5,2.4-18.8,3.5c-2.6,0.5-5.3,1-7.9,1.5
		c-7.3,1.4-9,9.9-8,16.1c0.9,6.1,3.8,12.3,5.9,18.1c3.1,8.7,6.1,17.4,9.2,26c2.4,7,4.5,14.7,11,19.1c6.2,4.2,11.3,1,17.1-1.7
		c5.8-2.7,11.6-5.5,17.4-8.2c13-6.1,6.5-21,2.8-31.4C199.4,134.8,196.1,124.4,192.1,114.3z"/>
	<path class="st3" d="M119.2,66.6c2.7,7.9,4.9,16,11.6,21.6c5.8,4.9,11.2,4.2,17.9,3.3c6.5-0.9,13-1.7,19.5-2.6
		c1.5-0.2,3.1-0.2,4.5-0.7c5.6-1.7,5.8-9.1,4.8-13.7c-0.9-4.3-2.7-8.5-4.1-12.6c-3.4-10.1-6.7-20.3-10.3-30.4
		c-2.7-7.7-9-16.1-17.6-17c-5.8-0.6-11.7-1.2-17.6-1.7c-7.4-0.7-20.6-4.6-22.7,5.7c-1.4,6.8,2.6,14.7,4.7,21
		C113.1,48.6,116.1,57.6,119.2,66.6z"/>
	<path class="st4" d="M180.1,57.8c2.7,7.7,4.9,17.2,11,23c5.3,5,10.8,3.2,17.2,2.2c4.3-0.6,13.6,0,15.3-5.1
		c1.8-5.6-1.2-11.9-3.1-17.2c-2.3-6.4-4.5-12.8-6.8-19.2c-1.7-4.9-3.2-10.2-6-14.6c-4.4-6.7-8.9-7.7-16-8.3
		c-5.4-0.5-10.8-1-16.2-1.4c-8.4-0.7-5.8,11.2-4.2,15.8C174.3,41.3,177.2,49.5,180.1,57.8z"/>
	<path class="st4" d="M245.8,132.2c-2.3-6.4-4.5-12.8-6.8-19.2c-1.7-4.8-3.1-10.1-6-14.4c-1.9-2.9-5.3-6.6-9.2-5.8
		c-2.4,0.4-4.8,0.9-7.2,1.4c-3.1,0.6-6.3,1.2-9.4,1.8c-1.9,0.4-4.5,0.5-6.1,1.8c-5.3,4.5-2.2,13.3-0.3,18.9
		c2.9,8.2,5.8,16.5,8.7,24.7c2.4,6.9,4.4,16,10.2,20.7c5.3,4.4,10.8,0.1,16-2.3c5.4-2.5,12.8-4.1,13.6-11
		C250.1,142.9,247.7,137.5,245.8,132.2z"/>
</g>
</svg>
